<svg xmlns="http://www.w3.org/2000/svg" viewBox="0 0 160 160" width="160" height="160">
  <g stroke-linejoin="round" stroke-linecap="round">
    <polygon points="24,84 44,52 98,44 142,70 144,116 112,142 52,136 22,112" fill="#151821" opacity="0.35"/>
    <polygon points="26,80 46,48 100,40 138,66 140,110 110,136 50,130 24,106" fill="#444958" stroke="#222633" stroke-width="5"/>
    <polygon points="46,48 100,40 112,74 68,82" fill="#A2A8BC" stroke="#222633" stroke-width="2.5"/>
    <polygon points="100,40 138,66 116,92 112,74" fill="#D8DEEE" stroke="#222633" stroke-width="2.5"/>
    <polygon points="26,80 46,48 68,82 46,110 24,106" fill="#444958" stroke="#222633" stroke-width="2.5"/>
    <polygon points="68,82 112,74 116,92 96,122 56,118 46,110" fill="#72788C" stroke="#222633" stroke-width="2.5"/>
    <polygon points="46,110 56,118 96,122 110,136 50,130" fill="#363A48" stroke="#222633" stroke-width="2.5"/>
    <path d="M 52 64 L 74 62 L 86 78 L 76 96" stroke="#222633" stroke-width="7" fill="none"/>
    <path d="M 52 64 L 74 62 L 86 78 L 76 96" stroke="#C89524" stroke-width="5" fill="none"/>
    <path d="M 54 63 L 74 62 L 86 78 L 76 96" stroke="#FFE27A" stroke-width="2" fill="none"/>
    <path d="M 98 54 L 118 70 L 106 88 L 126 102" stroke="#222633" stroke-width="6" fill="none"/>
    <path d="M 98 54 L 118 70 L 106 88 L 126 102" stroke="#C89524" stroke-width="4" fill="none"/>
    <path d="M 98 54 L 118 70 L 106 88 L 126 102" stroke="#FFE27A" stroke-width="1.5" fill="none"/>
    <polygon points="60,94 70,88 74,98 64,104" fill="#FFE27A" stroke="#222633" stroke-width="2"/>
    <polygon points="102,96 112,92 114,102 104,106" fill="#FFE27A" stroke="#222633" stroke-width="2"/>
  </g>
</svg>
