<svg xmlns="http://www.w3.org/2000/svg" viewBox="0 0 140 140" width="140" height="140">
  <g stroke-linejoin="round" stroke-linecap="round">
    <rect x="16" y="16" width="108" height="108" rx="6" fill="#483420" stroke="#222633" stroke-width="4.5"/>
    <rect x="22" y="22" width="96" height="96" rx="3" fill="#3D291C"/>
    <g transform="translate(42, 42)">
      <circle cx="0" cy="0" r="15" fill="#6E4F32" stroke="#222633" stroke-width="3"/>
      <polygon points="-8,8 0,-16 8,8" fill="#444958" stroke="#222633" stroke-width="2"/>
      <polygon points="-5,5 0,-16 5,5" fill="#A2A8BC"/>
      <line x1="0" y1="-16" x2="0" y2="4" stroke="#D8DEEE" stroke-width="1.5"/>
    </g>
    <g transform="translate(98, 42)">
      <circle cx="0" cy="0" r="15" fill="#6E4F32" stroke="#222633" stroke-width="3"/>
      <polygon points="-8,8 0,-16 8,8" fill="#444958" stroke="#222633" stroke-width="2"/>
      <polygon points="-5,5 0,-16 5,5" fill="#A2A8BC"/>
      <line x1="0" y1="-16" x2="0" y2="4" stroke="#D8DEEE" stroke-width="1.5"/>
    </g>
    <g transform="translate(42, 98)">
      <circle cx="0" cy="0" r="15" fill="#6E4F32" stroke="#222633" stroke-width="3"/>
      <polygon points="-8,8 0,-16 8,8" fill="#444958" stroke="#222633" stroke-width="2"/>
      <polygon points="-5,5 0,-16 5,5" fill="#A2A8BC"/>
      <line x1="0" y1="-16" x2="0" y2="4" stroke="#D8DEEE" stroke-width="1.5"/>
    </g>
    <g transform="translate(98, 98)">
      <circle cx="0" cy="0" r="15" fill="#6E4F32" stroke="#222633" stroke-width="3"/>
      <polygon points="-8,8 0,-16 8,8" fill="#444958" stroke="#222633" stroke-width="2"/>
      <polygon points="-5,5 0,-16 5,5" fill="#A2A8BC"/>
      <line x1="0" y1="-16" x2="0" y2="4" stroke="#D8DEEE" stroke-width="1.5"/>
    </g>
    <g transform="translate(70, 70)">
      <circle cx="0" cy="0" r="20" fill="#483420" stroke="#222633" stroke-width="3.5"/>
      <circle cx="0" cy="0" r="16" fill="#6E4F32"/>
      <polygon points="-11,11 0,-22 11,11" fill="#444958" stroke="#222633" stroke-width="2.5"/>
      <polygon points="-7,7 0,-22 7,7" fill="#D8DEEE"/>
      <line x1="0" y1="-22" x2="0" y2="6" stroke="#D8DEEE" stroke-width="2"/>
    </g>
  </g>
</svg>
